<svg xmlns="http://www.w3.org/2000/svg" viewBox="0 0 256 256"><defs><radialGradient id="wash"><stop stop-color="#f1e1e4"/><stop offset="1" stop-color="#faf7f0"/></radialGradient><linearGradient id="petal" x2="1" y2="1"><stop stop-color="#fff9f6"/><stop offset="1" stop-color="#ad9bcc"/></linearGradient></defs><rect width="256" height="256" fill="url(#wash)"/><ellipse cx="185" cy="40" rx="95" ry="70" fill="#ad9bcc" opacity=".12"/><path d="M116 134q-14 46 5 134" stroke="#95ab94" stroke-width="3" fill="none"/><ellipse cx="103" cy="176" rx="11" ry="27" transform="rotate(-38 103 176)" fill="#a5bba6" opacity=".8"/><ellipse cx="123" cy="136" rx="7" ry="9" fill="#ad9bcc" stroke="#f2eaff" stroke-width="1"/><ellipse cx="109" cy="128" rx="7" ry="9" fill="#ad9bcc" stroke="#f2eaff" stroke-width="1"/><ellipse cx="123" cy="120" rx="7" ry="9" fill="#ad9bcc" stroke="#f2eaff" stroke-width="1"/><ellipse cx="109" cy="112" rx="7" ry="9" fill="#ad9bcc" stroke="#f2eaff" stroke-width="1"/><ellipse cx="123" cy="104" rx="7" ry="9" fill="#ad9bcc" stroke="#f2eaff" stroke-width="1"/><ellipse cx="109" cy="96" rx="7" ry="9" fill="#ad9bcc" stroke="#f2eaff" stroke-width="1"/><ellipse cx="123" cy="88" rx="7" ry="9" fill="#ad9bcc" stroke="#f2eaff" stroke-width="1"/><ellipse cx="109" cy="80" rx="7" ry="9" fill="#ad9bcc" stroke="#f2eaff" stroke-width="1"/><path d="M185 184q-14 46 5 134" stroke="#95ab94" stroke-width="3" fill="none"/><ellipse cx="172" cy="226" rx="11" ry="27" transform="rotate(-38 172 226)" fill="#a5bba6" opacity=".8"/><ellipse cx="192" cy="186" rx="4.34" ry="5.58" fill="#ad9bcc" stroke="#f2eaff" stroke-width="1"/><ellipse cx="178" cy="178" rx="4.34" ry="5.58" fill="#ad9bcc" stroke="#f2eaff" stroke-width="1"/><ellipse cx="192" cy="170" rx="4.34" ry="5.58" fill="#ad9bcc" stroke="#f2eaff" stroke-width="1"/><ellipse cx="178" cy="162" rx="4.34" ry="5.58" fill="#ad9bcc" stroke="#f2eaff" stroke-width="1"/><ellipse cx="192" cy="154" rx="4.34" ry="5.58" fill="#ad9bcc" stroke="#f2eaff" stroke-width="1"/><ellipse cx="178" cy="146" rx="4.34" ry="5.58" fill="#ad9bcc" stroke="#f2eaff" stroke-width="1"/><ellipse cx="192" cy="138" rx="4.34" ry="5.58" fill="#ad9bcc" stroke="#f2eaff" stroke-width="1"/><ellipse cx="178" cy="130" rx="4.34" ry="5.58" fill="#ad9bcc" stroke="#f2eaff" stroke-width="1"/><path d="M63 204q-14 46 5 134" stroke="#95ab94" stroke-width="3" fill="none"/><ellipse cx="50" cy="246" rx="11" ry="27" transform="rotate(-38 50 246)" fill="#a5bba6" opacity=".8"/><ellipse cx="70" cy="206" rx="3.22" ry="4.140000000000001" fill="#ad9bcc" stroke="#f2eaff" stroke-width="1"/><ellipse cx="56" cy="198" rx="3.22" ry="4.140000000000001" fill="#ad9bcc" stroke="#f2eaff" stroke-width="1"/><ellipse cx="70" cy="190" rx="3.22" ry="4.140000000000001" fill="#ad9bcc" stroke="#f2eaff" stroke-width="1"/><ellipse cx="56" cy="182" rx="3.22" ry="4.140000000000001" fill="#ad9bcc" stroke="#f2eaff" stroke-width="1"/><ellipse cx="70" cy="174" rx="3.22" ry="4.140000000000001" fill="#ad9bcc" stroke="#f2eaff" stroke-width="1"/><ellipse cx="56" cy="166" rx="3.22" ry="4.140000000000001" fill="#ad9bcc" stroke="#f2eaff" stroke-width="1"/><ellipse cx="70" cy="158" rx="3.22" ry="4.140000000000001" fill="#ad9bcc" stroke="#f2eaff" stroke-width="1"/><ellipse cx="56" cy="150" rx="3.22" ry="4.140000000000001" fill="#ad9bcc" stroke="#f2eaff" stroke-width="1"/><g fill="#fff" opacity=".8"><circle cx="202" cy="93" r="3"/><circle cx="30" cy="43" r="2"/><circle cx="39" cy="130" r="2"/></g></svg>