<svg xmlns="http://www.w3.org/2000/svg" viewBox="0 0 256 256"><defs><radialGradient id="wash"><stop stop-color="#f1e1e4"/><stop offset="1" stop-color="#faf7f0"/></radialGradient><linearGradient id="petal" x2="1" y2="1"><stop stop-color="#fff9f6"/><stop offset="1" stop-color="#e8d7b7"/></linearGradient></defs><rect width="256" height="256" fill="url(#wash)"/><ellipse cx="185" cy="40" rx="95" ry="70" fill="#e8d7b7" opacity=".12"/><path d="M116 134q-14 46 5 134" stroke="#95ab94" stroke-width="3" fill="none"/><ellipse cx="103" cy="176" rx="11" ry="27" transform="rotate(-38 103 176)" fill="#a5bba6" opacity=".8"/><ellipse cx="116.0" cy="83.0" rx="17" ry="30" transform="rotate(0.0 116.0 83.0)" fill="url(#petal)" stroke="#e8d7b7" stroke-opacity=".4" stroke-width=".8"/><ellipse cx="130.5" cy="86.88526329025127" rx="17" ry="30" transform="rotate(30.0 130.5 86.88526329025127)" fill="url(#petal)" stroke="#e8d7b7" stroke-opacity=".4" stroke-width=".8"/><ellipse cx="141.1147367097487" cy="97.5" rx="17" ry="30" transform="rotate(60.0 141.1147367097487 97.5)" fill="url(#petal)" stroke="#e8d7b7" stroke-opacity=".4" stroke-width=".8"/><ellipse cx="145.0" cy="112.0" rx="17" ry="30" transform="rotate(90.0 145.0 112.0)" fill="url(#petal)" stroke="#e8d7b7" stroke-opacity=".4" stroke-width=".8"/><ellipse cx="141.1147367097487" cy="126.5" rx="17" ry="30" transform="rotate(120.0 141.1147367097487 126.5)" fill="url(#petal)" stroke="#e8d7b7" stroke-opacity=".4" stroke-width=".8"/><ellipse cx="130.5" cy="137.1147367097487" rx="17" ry="30" transform="rotate(150.0 130.5 137.1147367097487)" fill="url(#petal)" stroke="#e8d7b7" stroke-opacity=".4" stroke-width=".8"/><ellipse cx="116.0" cy="141.0" rx="17" ry="30" transform="rotate(180.0 116.0 141.0)" fill="url(#petal)" stroke="#e8d7b7" stroke-opacity=".4" stroke-width=".8"/><ellipse cx="101.5" cy="137.1147367097487" rx="17" ry="30" transform="rotate(210.0 101.5 137.1147367097487)" fill="url(#petal)" stroke="#e8d7b7" stroke-opacity=".4" stroke-width=".8"/><ellipse cx="90.88526329025129" cy="126.50000000000001" rx="17" ry="30" transform="rotate(240.0 90.88526329025129 126.50000000000001)" fill="url(#petal)" stroke="#e8d7b7" stroke-opacity=".4" stroke-width=".8"/><ellipse cx="87.0" cy="112.0" rx="17" ry="30" transform="rotate(270.0 87.0 112.0)" fill="url(#petal)" stroke="#e8d7b7" stroke-opacity=".4" stroke-width=".8"/><ellipse cx="90.88526329025129" cy="97.5" rx="17" ry="30" transform="rotate(300.0 90.88526329025129 97.5)" fill="url(#petal)" stroke="#e8d7b7" stroke-opacity=".4" stroke-width=".8"/><ellipse cx="101.49999999999999" cy="86.88526329025129" rx="17" ry="30" transform="rotate(330.0 101.49999999999999 86.88526329025129)" fill="url(#petal)" stroke="#e8d7b7" stroke-opacity=".4" stroke-width=".8"/><ellipse cx="120.15823381635519" cy="92.43704798532389" rx="13" ry="23" transform="rotate(12.0 120.15823381635519 92.43704798532389)" fill="url(#petal)" stroke="#e8d7b7" stroke-opacity=".4" stroke-width=".8"/><ellipse cx="129.38261212717717" cy="97.13710349045212" rx="13" ry="23" transform="rotate(42.0 129.38261212717717 97.13710349045212)" fill="url(#petal)" stroke="#e8d7b7" stroke-opacity=".4" stroke-width=".8"/><ellipse cx="135.02113032590307" cy="105.81966011250105" rx="13" ry="23" transform="rotate(72.0 135.02113032590307 105.81966011250105)" fill="url(#petal)" stroke="#e8d7b7" stroke-opacity=".4" stroke-width=".8"/><ellipse cx="135.5629520146761" cy="116.15823381635519" rx="13" ry="23" transform="rotate(102.0 135.5629520146761 116.15823381635519)" fill="url(#petal)" stroke="#e8d7b7" stroke-opacity=".4" stroke-width=".8"/><ellipse cx="130.86289650954788" cy="125.38261212717717" rx="13" ry="23" transform="rotate(132.0 130.86289650954788 125.38261212717717)" fill="url(#petal)" stroke="#e8d7b7" stroke-opacity=".4" stroke-width=".8"/><ellipse cx="122.18033988749895" cy="131.02113032590307" rx="13" ry="23" transform="rotate(162.0 122.18033988749895 131.02113032590307)" fill="url(#petal)" stroke="#e8d7b7" stroke-opacity=".4" stroke-width=".8"/><ellipse cx="111.84176618364481" cy="131.5629520146761" rx="13" ry="23" transform="rotate(192.0 111.84176618364481 131.5629520146761)" fill="url(#petal)" stroke="#e8d7b7" stroke-opacity=".4" stroke-width=".8"/><ellipse cx="102.61738787282283" cy="126.86289650954788" rx="13" ry="23" transform="rotate(222.0 102.61738787282283 126.86289650954788)" fill="url(#petal)" stroke="#e8d7b7" stroke-opacity=".4" stroke-width=".8"/><ellipse cx="96.97886967409693" cy="118.18033988749895" rx="13" ry="23" transform="rotate(252.0 96.97886967409693 118.18033988749895)" fill="url(#petal)" stroke="#e8d7b7" stroke-opacity=".4" stroke-width=".8"/><ellipse cx="96.43704798532389" cy="107.84176618364481" rx="13" ry="23" transform="rotate(282.0 96.43704798532389 107.84176618364481)" fill="url(#petal)" stroke="#e8d7b7" stroke-opacity=".4" stroke-width=".8"/><ellipse cx="101.1371034904521" cy="98.61738787282285" rx="13" ry="23" transform="rotate(312.0 101.1371034904521 98.61738787282285)" fill="url(#petal)" stroke="#e8d7b7" stroke-opacity=".4" stroke-width=".8"/><ellipse cx="109.81966011250104" cy="92.97886967409693" rx="13" ry="23" transform="rotate(342.0 109.81966011250104 92.97886967409693)" fill="url(#petal)" stroke="#e8d7b7" stroke-opacity=".4" stroke-width=".8"/><ellipse cx="120.4741030738338" cy="101.95099996593139" rx="9" ry="16" transform="rotate(24.0 120.4741030738338 101.95099996593139)" fill="url(#petal)" stroke="#e8d7b7" stroke-opacity=".4" stroke-width=".8"/><ellipse cx="124.89918693812442" cy="105.5343622247828" rx="9" ry="16" transform="rotate(54.0 124.89918693812442 105.5343622247828)" fill="url(#petal)" stroke="#e8d7b7" stroke-opacity=".4" stroke-width=".8"/><ellipse cx="126.939740849051" cy="110.85018690405582" rx="9" ry="16" transform="rotate(84.0 126.939740849051 110.85018690405582)" fill="url(#petal)" stroke="#e8d7b7" stroke-opacity=".4" stroke-width=".8"/><ellipse cx="126.04900003406861" cy="116.4741030738338" rx="9" ry="16" transform="rotate(114.0 126.04900003406861 116.4741030738338)" fill="url(#petal)" stroke="#e8d7b7" stroke-opacity=".4" stroke-width=".8"/><ellipse cx="122.4656377752172" cy="120.89918693812442" rx="9" ry="16" transform="rotate(144.0 122.4656377752172 120.89918693812442)" fill="url(#petal)" stroke="#e8d7b7" stroke-opacity=".4" stroke-width=".8"/><ellipse cx="117.1498130959442" cy="122.939740849051" rx="9" ry="16" transform="rotate(174.0 117.1498130959442 122.939740849051)" fill="url(#petal)" stroke="#e8d7b7" stroke-opacity=".4" stroke-width=".8"/><ellipse cx="111.5258969261662" cy="122.04900003406861" rx="9" ry="16" transform="rotate(204.0 111.5258969261662 122.04900003406861)" fill="url(#petal)" stroke="#e8d7b7" stroke-opacity=".4" stroke-width=".8"/><ellipse cx="107.10081306187558" cy="118.4656377752172" rx="9" ry="16" transform="rotate(234.0 107.10081306187558 118.4656377752172)" fill="url(#petal)" stroke="#e8d7b7" stroke-opacity=".4" stroke-width=".8"/><ellipse cx="105.060259150949" cy="113.14981309594418" rx="9" ry="16" transform="rotate(264.0 105.060259150949 113.14981309594418)" fill="url(#petal)" stroke="#e8d7b7" stroke-opacity=".4" stroke-width=".8"/><ellipse cx="105.95099996593139" cy="107.5258969261662" rx="9" ry="16" transform="rotate(294.0 105.95099996593139 107.5258969261662)" fill="url(#petal)" stroke="#e8d7b7" stroke-opacity=".4" stroke-width=".8"/><ellipse cx="109.5343622247828" cy="103.10081306187558" rx="9" ry="16" transform="rotate(324.0 109.5343622247828 103.10081306187558)" fill="url(#petal)" stroke="#e8d7b7" stroke-opacity=".4" stroke-width=".8"/><ellipse cx="114.85018690405582" cy="101.060259150949" rx="9" ry="16" transform="rotate(354.0 114.85018690405582 101.060259150949)" fill="url(#petal)" stroke="#e8d7b7" stroke-opacity=".4" stroke-width=".8"/><circle cx="116" cy="112" r="8" fill="#e8d7b7"/><path d="M185 184q-14 46 5 134" stroke="#95ab94" stroke-width="3" fill="none"/><ellipse cx="172" cy="226" rx="11" ry="27" transform="rotate(-38 172 226)" fill="#a5bba6" opacity=".8"/><ellipse cx="185.0" cy="144.02" rx="10.54" ry="18.6" transform="rotate(0.0 185.0 144.02)" fill="url(#petal)" stroke="#e8d7b7" stroke-opacity=".4" stroke-width=".8"/><ellipse cx="193.99" cy="146.4288632399558" rx="10.54" ry="18.6" transform="rotate(30.0 193.99 146.4288632399558)" fill="url(#petal)" stroke="#e8d7b7" stroke-opacity=".4" stroke-width=".8"/><ellipse cx="200.5711367600442" cy="153.01" rx="10.54" ry="18.6" transform="rotate(60.0 200.5711367600442 153.01)" fill="url(#petal)" stroke="#e8d7b7" stroke-opacity=".4" stroke-width=".8"/><ellipse cx="202.98" cy="162.0" rx="10.54" ry="18.6" transform="rotate(90.0 202.98 162.0)" fill="url(#petal)" stroke="#e8d7b7" stroke-opacity=".4" stroke-width=".8"/><ellipse cx="200.5711367600442" cy="170.99" rx="10.54" ry="18.6" transform="rotate(120.0 200.5711367600442 170.99)" fill="url(#petal)" stroke="#e8d7b7" stroke-opacity=".4" stroke-width=".8"/><ellipse cx="193.99" cy="177.5711367600442" rx="10.54" ry="18.6" transform="rotate(150.0 193.99 177.5711367600442)" fill="url(#petal)" stroke="#e8d7b7" stroke-opacity=".4" stroke-width=".8"/><ellipse cx="185.0" cy="179.98" rx="10.54" ry="18.6" transform="rotate(180.0 185.0 179.98)" fill="url(#petal)" stroke="#e8d7b7" stroke-opacity=".4" stroke-width=".8"/><ellipse cx="176.01" cy="177.5711367600442" rx="10.54" ry="18.6" transform="rotate(210.0 176.01 177.5711367600442)" fill="url(#petal)" stroke="#e8d7b7" stroke-opacity=".4" stroke-width=".8"/><ellipse cx="169.4288632399558" cy="170.99" rx="10.54" ry="18.6" transform="rotate(240.0 169.4288632399558 170.99)" fill="url(#petal)" stroke="#e8d7b7" stroke-opacity=".4" stroke-width=".8"/><ellipse cx="167.02" cy="162.0" rx="10.54" ry="18.6" transform="rotate(270.0 167.02 162.0)" fill="url(#petal)" stroke="#e8d7b7" stroke-opacity=".4" stroke-width=".8"/><ellipse cx="169.4288632399558" cy="153.01" rx="10.54" ry="18.6" transform="rotate(300.0 169.4288632399558 153.01)" fill="url(#petal)" stroke="#e8d7b7" stroke-opacity=".4" stroke-width=".8"/><ellipse cx="176.01" cy="146.4288632399558" rx="10.54" ry="18.6" transform="rotate(330.0 176.01 146.4288632399558)" fill="url(#petal)" stroke="#e8d7b7" stroke-opacity=".4" stroke-width=".8"/><ellipse cx="187.57810496614022" cy="149.8709697509008" rx="8.06" ry="14.26" transform="rotate(12.0 187.57810496614022 149.8709697509008)" fill="url(#petal)" stroke="#e8d7b7" stroke-opacity=".4" stroke-width=".8"/><ellipse cx="193.29721951884983" cy="152.7850041640803" rx="8.06" ry="14.26" transform="rotate(42.0 193.29721951884983 152.7850041640803)" fill="url(#petal)" stroke="#e8d7b7" stroke-opacity=".4" stroke-width=".8"/><ellipse cx="196.7931008020599" cy="158.16818926975066" rx="8.06" ry="14.26" transform="rotate(72.0 196.7931008020599 158.16818926975066)" fill="url(#petal)" stroke="#e8d7b7" stroke-opacity=".4" stroke-width=".8"/><ellipse cx="197.1290302490992" cy="164.57810496614022" rx="8.06" ry="14.26" transform="rotate(102.0 197.1290302490992 164.57810496614022)" fill="url(#petal)" stroke="#e8d7b7" stroke-opacity=".4" stroke-width=".8"/><ellipse cx="194.2149958359197" cy="170.29721951884983" rx="8.06" ry="14.26" transform="rotate(132.0 194.2149958359197 170.29721951884983)" fill="url(#petal)" stroke="#e8d7b7" stroke-opacity=".4" stroke-width=".8"/><ellipse cx="188.83181073024934" cy="173.7931008020599" rx="8.06" ry="14.26" transform="rotate(162.0 188.83181073024934 173.7931008020599)" fill="url(#petal)" stroke="#e8d7b7" stroke-opacity=".4" stroke-width=".8"/><ellipse cx="182.42189503385978" cy="174.1290302490992" rx="8.06" ry="14.26" transform="rotate(192.0 182.42189503385978 174.1290302490992)" fill="url(#petal)" stroke="#e8d7b7" stroke-opacity=".4" stroke-width=".8"/><ellipse cx="176.70278048115017" cy="171.2149958359197" rx="8.06" ry="14.26" transform="rotate(222.0 176.70278048115017 171.2149958359197)" fill="url(#petal)" stroke="#e8d7b7" stroke-opacity=".4" stroke-width=".8"/><ellipse cx="173.2068991979401" cy="165.83181073024934" rx="8.06" ry="14.26" transform="rotate(252.0 173.2068991979401 165.83181073024934)" fill="url(#petal)" stroke="#e8d7b7" stroke-opacity=".4" stroke-width=".8"/><ellipse cx="172.8709697509008" cy="159.42189503385978" rx="8.06" ry="14.26" transform="rotate(282.0 172.8709697509008 159.42189503385978)" fill="url(#petal)" stroke="#e8d7b7" stroke-opacity=".4" stroke-width=".8"/><ellipse cx="175.7850041640803" cy="153.70278048115017" rx="8.06" ry="14.26" transform="rotate(312.0 175.7850041640803 153.70278048115017)" fill="url(#petal)" stroke="#e8d7b7" stroke-opacity=".4" stroke-width=".8"/><ellipse cx="181.16818926975066" cy="150.2068991979401" rx="8.06" ry="14.26" transform="rotate(342.0 181.16818926975066 150.2068991979401)" fill="url(#petal)" stroke="#e8d7b7" stroke-opacity=".4" stroke-width=".8"/><ellipse cx="187.77394390577695" cy="155.76961997887747" rx="5.58" ry="9.92" transform="rotate(24.0 187.77394390577695 155.76961997887747)" fill="url(#petal)" stroke="#e8d7b7" stroke-opacity=".4" stroke-width=".8"/><ellipse cx="190.51749590163715" cy="157.99130457936533" rx="5.58" ry="9.92" transform="rotate(54.0 190.51749590163715 157.99130457936533)" fill="url(#petal)" stroke="#e8d7b7" stroke-opacity=".4" stroke-width=".8"/><ellipse cx="191.7826393264116" cy="161.2871158805146" rx="5.58" ry="9.92" transform="rotate(84.0 191.7826393264116 161.2871158805146)" fill="url(#petal)" stroke="#e8d7b7" stroke-opacity=".4" stroke-width=".8"/><ellipse cx="191.23038002112253" cy="164.77394390577695" rx="5.58" ry="9.92" transform="rotate(114.0 191.23038002112253 164.77394390577695)" fill="url(#petal)" stroke="#e8d7b7" stroke-opacity=".4" stroke-width=".8"/><ellipse cx="189.00869542063467" cy="167.51749590163715" rx="5.58" ry="9.92" transform="rotate(144.0 189.00869542063467 167.51749590163715)" fill="url(#petal)" stroke="#e8d7b7" stroke-opacity=".4" stroke-width=".8"/><ellipse cx="185.7128841194854" cy="168.7826393264116" rx="5.58" ry="9.92" transform="rotate(174.0 185.7128841194854 168.7826393264116)" fill="url(#petal)" stroke="#e8d7b7" stroke-opacity=".4" stroke-width=".8"/><ellipse cx="182.22605609422305" cy="168.23038002112253" rx="5.58" ry="9.92" transform="rotate(204.0 182.22605609422305 168.23038002112253)" fill="url(#petal)" stroke="#e8d7b7" stroke-opacity=".4" stroke-width=".8"/><ellipse cx="179.48250409836285" cy="166.00869542063467" rx="5.58" ry="9.92" transform="rotate(234.0 179.48250409836285 166.00869542063467)" fill="url(#petal)" stroke="#e8d7b7" stroke-opacity=".4" stroke-width=".8"/><ellipse cx="178.2173606735884" cy="162.7128841194854" rx="5.58" ry="9.92" transform="rotate(264.0 178.2173606735884 162.7128841194854)" fill="url(#petal)" stroke="#e8d7b7" stroke-opacity=".4" stroke-width=".8"/><ellipse cx="178.76961997887747" cy="159.22605609422305" rx="5.58" ry="9.92" transform="rotate(294.0 178.76961997887747 159.22605609422305)" fill="url(#petal)" stroke="#e8d7b7" stroke-opacity=".4" stroke-width=".8"/><ellipse cx="180.99130457936533" cy="156.48250409836285" rx="5.58" ry="9.92" transform="rotate(324.0 180.99130457936533 156.48250409836285)" fill="url(#petal)" stroke="#e8d7b7" stroke-opacity=".4" stroke-width=".8"/><ellipse cx="184.2871158805146" cy="155.2173606735884" rx="5.58" ry="9.92" transform="rotate(354.0 184.2871158805146 155.2173606735884)" fill="url(#petal)" stroke="#e8d7b7" stroke-opacity=".4" stroke-width=".8"/><circle cx="185" cy="162" r="4.96" fill="#e8d7b7"/><path d="M63 204q-14 46 5 134" stroke="#95ab94" stroke-width="3" fill="none"/><ellipse cx="50" cy="246" rx="11" ry="27" transform="rotate(-38 50 246)" fill="#a5bba6" opacity=".8"/><ellipse cx="63.0" cy="168.66" rx="7.82" ry="13.8" transform="rotate(0.0 63.0 168.66)" fill="url(#petal)" stroke="#e8d7b7" stroke-opacity=".4" stroke-width=".8"/><ellipse cx="69.67" cy="170.44722111351558" rx="7.82" ry="13.8" transform="rotate(30.0 69.67 170.44722111351558)" fill="url(#petal)" stroke="#e8d7b7" stroke-opacity=".4" stroke-width=".8"/><ellipse cx="74.55277888648442" cy="175.32999999999998" rx="7.82" ry="13.8" transform="rotate(60.0 74.55277888648442 175.32999999999998)" fill="url(#petal)" stroke="#e8d7b7" stroke-opacity=".4" stroke-width=".8"/><ellipse cx="76.34" cy="182.0" rx="7.82" ry="13.8" transform="rotate(90.0 76.34 182.0)" fill="url(#petal)" stroke="#e8d7b7" stroke-opacity=".4" stroke-width=".8"/><ellipse cx="74.55277888648442" cy="188.67" rx="7.82" ry="13.8" transform="rotate(120.0 74.55277888648442 188.67)" fill="url(#petal)" stroke="#e8d7b7" stroke-opacity=".4" stroke-width=".8"/><ellipse cx="69.67" cy="193.55277888648442" rx="7.82" ry="13.8" transform="rotate(150.0 69.67 193.55277888648442)" fill="url(#petal)" stroke="#e8d7b7" stroke-opacity=".4" stroke-width=".8"/><ellipse cx="63.0" cy="195.34" rx="7.82" ry="13.8" transform="rotate(180.0 63.0 195.34)" fill="url(#petal)" stroke="#e8d7b7" stroke-opacity=".4" stroke-width=".8"/><ellipse cx="56.33" cy="193.55277888648442" rx="7.82" ry="13.8" transform="rotate(210.0 56.33 193.55277888648442)" fill="url(#petal)" stroke="#e8d7b7" stroke-opacity=".4" stroke-width=".8"/><ellipse cx="51.44722111351559" cy="188.67000000000002" rx="7.82" ry="13.8" transform="rotate(240.0 51.44722111351559 188.67000000000002)" fill="url(#petal)" stroke="#e8d7b7" stroke-opacity=".4" stroke-width=".8"/><ellipse cx="49.66" cy="182.0" rx="7.82" ry="13.8" transform="rotate(270.0 49.66 182.0)" fill="url(#petal)" stroke="#e8d7b7" stroke-opacity=".4" stroke-width=".8"/><ellipse cx="51.44722111351559" cy="175.32999999999998" rx="7.82" ry="13.8" transform="rotate(300.0 51.44722111351559 175.32999999999998)" fill="url(#petal)" stroke="#e8d7b7" stroke-opacity=".4" stroke-width=".8"/><ellipse cx="56.32999999999999" cy="170.44722111351558" rx="7.82" ry="13.8" transform="rotate(330.0 56.32999999999999 170.44722111351558)" fill="url(#petal)" stroke="#e8d7b7" stroke-opacity=".4" stroke-width=".8"/><ellipse cx="64.91278755552338" cy="173.00104207324898" rx="5.98" ry="10.58" transform="rotate(12.0 64.91278755552338 173.00104207324898)" fill="url(#petal)" stroke="#e8d7b7" stroke-opacity=".4" stroke-width=".8"/><ellipse cx="69.1560015785015" cy="175.16306760560798" rx="5.98" ry="10.58" transform="rotate(42.0 69.1560015785015 175.16306760560798)" fill="url(#petal)" stroke="#e8d7b7" stroke-opacity=".4" stroke-width=".8"/><ellipse cx="71.74971994991542" cy="179.15704365175048" rx="5.98" ry="10.58" transform="rotate(72.0 71.74971994991542 179.15704365175048)" fill="url(#petal)" stroke="#e8d7b7" stroke-opacity=".4" stroke-width=".8"/><ellipse cx="71.99895792675102" cy="183.91278755552338" rx="5.98" ry="10.58" transform="rotate(102.0 71.99895792675102 183.91278755552338)" fill="url(#petal)" stroke="#e8d7b7" stroke-opacity=".4" stroke-width=".8"/><ellipse cx="69.83693239439202" cy="188.1560015785015" rx="5.98" ry="10.58" transform="rotate(132.0 69.83693239439202 188.1560015785015)" fill="url(#petal)" stroke="#e8d7b7" stroke-opacity=".4" stroke-width=".8"/><ellipse cx="65.84295634824952" cy="190.7497199499154" rx="5.98" ry="10.58" transform="rotate(162.0 65.84295634824952 190.7497199499154)" fill="url(#petal)" stroke="#e8d7b7" stroke-opacity=".4" stroke-width=".8"/><ellipse cx="61.08721244447661" cy="190.99895792675102" rx="5.98" ry="10.58" transform="rotate(192.0 61.08721244447661 190.99895792675102)" fill="url(#petal)" stroke="#e8d7b7" stroke-opacity=".4" stroke-width=".8"/><ellipse cx="56.843998421498505" cy="188.83693239439202" rx="5.98" ry="10.58" transform="rotate(222.0 56.843998421498505 188.83693239439202)" fill="url(#petal)" stroke="#e8d7b7" stroke-opacity=".4" stroke-width=".8"/><ellipse cx="54.250280050084584" cy="184.84295634824952" rx="5.98" ry="10.58" transform="rotate(252.0 54.250280050084584 184.84295634824952)" fill="url(#petal)" stroke="#e8d7b7" stroke-opacity=".4" stroke-width=".8"/><ellipse cx="54.00104207324899" cy="180.08721244447662" rx="5.98" ry="10.58" transform="rotate(282.0 54.00104207324899 180.08721244447662)" fill="url(#petal)" stroke="#e8d7b7" stroke-opacity=".4" stroke-width=".8"/><ellipse cx="56.16306760560797" cy="175.8439984214985" rx="5.98" ry="10.58" transform="rotate(312.0 56.16306760560797 175.8439984214985)" fill="url(#petal)" stroke="#e8d7b7" stroke-opacity=".4" stroke-width=".8"/><ellipse cx="60.157043651750485" cy="173.2502800500846" rx="5.98" ry="10.58" transform="rotate(342.0 60.157043651750485 173.2502800500846)" fill="url(#petal)" stroke="#e8d7b7" stroke-opacity=".4" stroke-width=".8"/><ellipse cx="65.05808741396355" cy="177.37745998432842" rx="4.140000000000001" ry="7.36" transform="rotate(24.0 65.05808741396355 177.37745998432842)" fill="url(#petal)" stroke="#e8d7b7" stroke-opacity=".4" stroke-width=".8"/><ellipse cx="67.09362599153724" cy="179.0258066234001" rx="4.140000000000001" ry="7.36" transform="rotate(54.0 67.09362599153724 179.0258066234001)" fill="url(#petal)" stroke="#e8d7b7" stroke-opacity=".4" stroke-width=".8"/><ellipse cx="68.03228079056346" cy="181.47108597586566" rx="4.140000000000001" ry="7.36" transform="rotate(84.0 68.03228079056346 181.47108597586566)" fill="url(#petal)" stroke="#e8d7b7" stroke-opacity=".4" stroke-width=".8"/><ellipse cx="67.62254001567156" cy="184.05808741396356" rx="4.140000000000001" ry="7.36" transform="rotate(114.0 67.62254001567156 184.05808741396356)" fill="url(#petal)" stroke="#e8d7b7" stroke-opacity=".4" stroke-width=".8"/><ellipse cx="65.97419337659991" cy="186.09362599153724" rx="4.140000000000001" ry="7.36" transform="rotate(144.0 65.97419337659991 186.09362599153724)" fill="url(#petal)" stroke="#e8d7b7" stroke-opacity=".4" stroke-width=".8"/><ellipse cx="63.52891402413433" cy="187.03228079056348" rx="4.140000000000001" ry="7.36" transform="rotate(174.0 63.52891402413433 187.03228079056348)" fill="url(#petal)" stroke="#e8d7b7" stroke-opacity=".4" stroke-width=".8"/><ellipse cx="60.94191258603645" cy="186.62254001567158" rx="4.140000000000001" ry="7.36" transform="rotate(204.0 60.94191258603645 186.62254001567158)" fill="url(#petal)" stroke="#e8d7b7" stroke-opacity=".4" stroke-width=".8"/><ellipse cx="58.90637400846276" cy="184.9741933765999" rx="4.140000000000001" ry="7.36" transform="rotate(234.0 58.90637400846276 184.9741933765999)" fill="url(#petal)" stroke="#e8d7b7" stroke-opacity=".4" stroke-width=".8"/><ellipse cx="57.96771920943654" cy="182.52891402413434" rx="4.140000000000001" ry="7.36" transform="rotate(264.0 57.96771920943654 182.52891402413434)" fill="url(#petal)" stroke="#e8d7b7" stroke-opacity=".4" stroke-width=".8"/><ellipse cx="58.37745998432844" cy="179.94191258603647" rx="4.140000000000001" ry="7.36" transform="rotate(294.0 58.37745998432844 179.94191258603647)" fill="url(#petal)" stroke="#e8d7b7" stroke-opacity=".4" stroke-width=".8"/><ellipse cx="60.025806623400086" cy="177.90637400846276" rx="4.140000000000001" ry="7.36" transform="rotate(324.0 60.025806623400086 177.90637400846276)" fill="url(#petal)" stroke="#e8d7b7" stroke-opacity=".4" stroke-width=".8"/><ellipse cx="62.47108597586568" cy="176.96771920943652" rx="4.140000000000001" ry="7.36" transform="rotate(354.0 62.47108597586568 176.96771920943652)" fill="url(#petal)" stroke="#e8d7b7" stroke-opacity=".4" stroke-width=".8"/><circle cx="63" cy="182" r="3.68" fill="#e8d7b7"/><g fill="#fff" opacity=".8"><circle cx="202" cy="93" r="3"/><circle cx="30" cy="43" r="2"/><circle cx="39" cy="130" r="2"/></g></svg>